<?xml version="1.0" encoding="UTF-8"?>
<svg xmlns="http://www.w3.org/2000/svg" xmlns:xlink="http://www.w3.org/1999/xlink" width="111.6pt" height="157.79pt" viewBox="0 0 111.6 157.79" version="1.1">
<defs>
<clipPath id="clip1">
  <path d="M 0 27 L 111.601563 27 L 111.601563 134 L 0 134 Z M 0 27 "/>
</clipPath>
<clipPath id="clip2">
  <path d="M 63 145 L 72 145 L 72 157.789063 L 63 157.789063 Z M 63 145 "/>
</clipPath>
</defs>
<g id="surface1">
<g clip-path="url(#clip1)" clip-rule="nonzero">
<path style=" stroke:none;fill-rule:nonzero;fill:rgb(94.898987%,57.299805%,15.299988%);fill-opacity:1;" d="M 111.601563 124.480469 C 111.601563 129.449219 107.570313 133.480469 102.601563 133.480469 L 9 133.480469 C 4.03125 133.480469 0 129.449219 0 124.480469 L 0 36.480469 C 0 31.507813 4.03125 27.480469 9 27.480469 L 102.601563 27.480469 C 107.570313 27.480469 111.601563 31.507813 111.601563 36.480469 L 111.601563 124.480469 "/>
</g>
<path style=" stroke:none;fill-rule:nonzero;fill:rgb(14.898682%,54.098511%,79.598999%);fill-opacity:1;" d="M 84.882813 71.894531 L 56.835938 125.566406 L 36.144531 125.566406 L 54.78125 89.894531 L 7.644531 89.894531 L 35.695313 36.226563 L 56.382813 36.226563 L 37.742188 71.894531 L 84.882813 71.894531 "/>
<path style=" stroke:none;fill-rule:evenodd;fill:rgb(14.898682%,54.098511%,79.598999%);fill-opacity:1;" d="M 101.195313 37.234375 C 101.476563 37.195313 101.621094 37.289063 101.675781 37.472656 C 96.078125 48.113281 90.824219 59.101563 85.355469 69.875 C 83.035156 69.875 80.71875 69.875 78.398438 69.875 C 77.5 69.875 75.957031 68.816406 75.21875 68.335938 C 74.257813 67.710938 73.453125 66.90625 72.804688 65.957031 C 71.269531 63.703125 70.441406 60.828125 70.613281 58.105469 C 70.839844 54.507813 72.324219 50.4375 75.757813 48.753906 C 85.859375 43.804688 86.199219 43.636719 101.195313 37.234375 "/>
<path style=" stroke:none;fill-rule:evenodd;fill:rgb(14.898682%,54.098511%,79.598999%);fill-opacity:1;" d="M 78.445313 37.234375 C 78.722656 37.195313 78.871094 37.289063 78.925781 37.472656 C 73.328125 48.113281 68.074219 59.101563 62.605469 69.875 C 60.285156 69.875 57.96875 69.875 55.648438 69.875 C 54.75 69.875 53.207031 68.816406 52.46875 68.335938 C 51.507813 67.710938 50.703125 66.90625 50.054688 65.957031 C 48.519531 63.703125 47.691406 60.828125 47.863281 58.105469 C 48.089844 54.507813 49.574219 50.4375 53.007813 48.753906 C 63.109375 43.804688 63.449219 43.636719 78.445313 37.234375 "/>
<path style=" stroke:none;fill-rule:nonzero;fill:rgb(14.898682%,54.098511%,79.598999%);fill-opacity:1;" d="M 19.007813 151.972656 L 21.335938 151.628906 C 21.433594 152.0625 21.636719 152.390625 21.9375 152.617188 C 22.238281 152.84375 22.664063 152.953125 23.210938 152.953125 C 23.808594 152.953125 24.257813 152.847656 24.5625 152.636719 C 24.765625 152.488281 24.867188 152.289063 24.867188 152.042969 C 24.867188 151.871094 24.8125 151.734375 24.703125 151.621094 C 24.585938 151.515625 24.328125 151.417969 23.925781 151.328125 C 22.054688 150.933594 20.871094 150.570313 20.371094 150.242188 C 19.675781 149.789063 19.332031 149.15625 19.332031 148.347656 C 19.332031 147.617188 19.628906 147.003906 20.230469 146.507813 C 20.828125 146.011719 21.757813 145.761719 23.019531 145.761719 C 24.21875 145.761719 25.105469 145.949219 25.691406 146.328125 C 26.277344 146.703125 26.675781 147.257813 26.894531 147.992188 L 24.710938 148.378906 C 24.617188 148.050781 24.441406 147.800781 24.175781 147.625 C 23.917969 147.453125 23.542969 147.363281 23.058594 147.363281 C 22.449219 147.363281 22.015625 147.445313 21.75 147.609375 C 21.574219 147.726563 21.484375 147.878906 21.484375 148.0625 C 21.484375 148.222656 21.5625 148.355469 21.714844 148.46875 C 21.925781 148.613281 22.644531 148.824219 23.882813 149.09375 C 25.113281 149.363281 25.976563 149.691406 26.46875 150.082031 C 26.949219 150.480469 27.191406 151.03125 27.191406 151.742188 C 27.191406 152.511719 26.859375 153.175781 26.1875 153.730469 C 25.515625 154.285156 24.523438 154.5625 23.210938 154.5625 C 22.015625 154.5625 21.070313 154.332031 20.375 153.867188 C 19.679688 153.402344 19.222656 152.769531 19.007813 151.972656 "/>
<path style=" stroke:none;fill-rule:nonzero;fill:rgb(14.898682%,54.098511%,79.598999%);fill-opacity:1;" d="M 31.0625 150.164063 C 31.0625 151 31.269531 151.636719 31.679688 152.082031 C 32.09375 152.527344 32.601563 152.746094 33.207031 152.746094 C 33.8125 152.746094 34.320313 152.527344 34.730469 152.082031 C 35.140625 151.636719 35.34375 150.992188 35.34375 150.148438 C 35.34375 149.324219 35.140625 148.6875 34.730469 148.246094 C 34.320313 147.800781 33.8125 147.578125 33.207031 147.578125 C 32.601563 147.578125 32.09375 147.800781 31.679688 148.246094 C 31.269531 148.6875 31.0625 149.328125 31.0625 150.164063 Z M 28.6875 150.046875 C 28.6875 149.304688 28.878906 148.589844 29.253906 147.894531 C 29.636719 147.203125 30.171875 146.675781 30.867188 146.308594 C 31.566406 145.945313 32.34375 145.761719 33.199219 145.761719 C 34.527344 145.761719 35.609375 146.179688 36.460938 147.003906 C 37.304688 147.832031 37.730469 148.875 37.730469 150.140625 C 37.730469 151.414063 37.300781 152.46875 36.445313 153.308594 C 35.589844 154.144531 34.515625 154.5625 33.21875 154.5625 C 32.414063 154.5625 31.648438 154.390625 30.917969 154.039063 C 30.191406 153.691406 29.636719 153.179688 29.253906 152.507813 C 28.878906 151.832031 28.6875 151.011719 28.6875 150.046875 "/>
<path style=" stroke:none;fill-rule:nonzero;fill:rgb(14.898682%,54.098511%,79.598999%);fill-opacity:1;" d="M 47.515625 154.371094 L 45.195313 154.371094 L 45.195313 150.074219 C 45.195313 149.167969 45.148438 148.578125 45.046875 148.3125 C 44.949219 148.046875 44.785156 147.839844 44.566406 147.691406 C 44.34375 147.542969 44.074219 147.46875 43.761719 147.46875 C 43.359375 147.46875 43 147.574219 42.679688 147.785156 C 42.359375 147.996094 42.140625 148.277344 42.023438 148.625 C 41.90625 148.976563 41.84375 149.617188 41.84375 150.558594 L 41.84375 154.371094 L 39.527344 154.371094 L 39.527344 145.953125 L 41.679688 145.953125 L 41.679688 147.191406 C 42.445313 146.238281 43.40625 145.761719 44.570313 145.761719 C 45.082031 145.761719 45.546875 145.851563 45.96875 146.027344 C 46.394531 146.207031 46.714844 146.433594 46.933594 146.707031 C 47.148438 146.980469 47.300781 147.292969 47.386719 147.640625 C 47.472656 147.992188 47.515625 148.492188 47.515625 149.140625 L 47.515625 154.371094 "/>
<path style=" stroke:none;fill-rule:nonzero;fill:rgb(14.898682%,54.098511%,79.598999%);fill-opacity:1;" d="M 55.070313 149.441406 C 55.054688 148.796875 54.882813 148.308594 54.550781 147.972656 C 54.222656 147.636719 53.820313 147.46875 53.34375 147.46875 C 52.84375 147.46875 52.421875 147.644531 52.09375 148 C 51.761719 148.351563 51.597656 148.835938 51.605469 149.441406 Z M 54.941406 151.695313 L 57.25 152.066406 C 56.953125 152.878906 56.484375 153.5 55.84375 153.925781 C 55.203125 154.351563 54.398438 154.5625 53.4375 154.5625 C 51.914063 154.5625 50.785156 154.085938 50.054688 153.128906 C 49.476563 152.363281 49.191406 151.394531 49.191406 150.226563 C 49.191406 148.832031 49.566406 147.738281 50.328125 146.949219 C 51.085938 146.160156 52.046875 145.761719 53.207031 145.761719 C 54.511719 145.761719 55.535156 146.179688 56.292969 147.003906 C 57.046875 147.832031 57.40625 149.097656 57.375 150.804688 L 51.566406 150.804688 C 51.582031 151.464844 51.769531 151.980469 52.125 152.347656 C 52.484375 152.714844 52.929688 152.898438 53.464844 152.898438 C 53.824219 152.898438 54.128906 152.804688 54.378906 152.613281 C 54.625 152.421875 54.8125 152.117188 54.941406 151.695313 "/>
<path style=" stroke:none;fill-rule:nonzero;fill:rgb(14.898682%,54.098511%,79.598999%);fill-opacity:1;" d="M 59.261719 154.371094 L 59.261719 142.75 L 61.582031 142.75 L 61.582031 154.371094 L 59.261719 154.371094 "/>
<g clip-path="url(#clip2)" clip-rule="nonzero">
<path style=" stroke:none;fill-rule:nonzero;fill:rgb(14.898682%,54.098511%,79.598999%);fill-opacity:1;" d="M 65.8125 149.988281 C 65.8125 150.882813 65.992188 151.535156 66.351563 151.949219 C 66.714844 152.367188 67.15625 152.574219 67.6875 152.574219 C 68.253906 152.574219 68.730469 152.359375 69.121094 151.933594 C 69.511719 151.511719 69.707031 150.878906 69.707031 150.046875 C 69.707031 149.171875 69.519531 148.523438 69.144531 148.101563 C 68.773438 147.679688 68.300781 147.46875 67.726563 147.46875 C 67.171875 147.46875 66.714844 147.675781 66.351563 148.089844 C 65.992188 148.503906 65.8125 149.140625 65.8125 149.988281 Z M 63.742188 154.929688 L 66.390625 155.238281 C 66.433594 155.53125 66.535156 155.734375 66.695313 155.847656 C 66.914063 156.007813 67.261719 156.085938 67.734375 156.085938 C 68.339844 156.085938 68.792969 155.996094 69.097656 155.824219 C 69.300781 155.707031 69.453125 155.519531 69.558594 155.261719 C 69.628906 155.074219 69.664063 154.734375 69.664063 154.238281 L 69.664063 153.011719 C 68.972656 153.917969 68.097656 154.371094 67.042969 154.371094 C 65.863281 154.371094 64.933594 153.894531 64.246094 152.9375 C 63.707031 152.183594 63.4375 151.242188 63.4375 150.117188 C 63.4375 148.703125 63.789063 147.625 64.496094 146.882813 C 65.203125 146.136719 66.082031 145.761719 67.132813 145.761719 C 68.21875 145.761719 69.109375 146.21875 69.816406 147.136719 L 69.816406 145.953125 L 71.984375 145.953125 L 71.984375 153.507813 C 71.984375 154.503906 71.898438 155.246094 71.726563 155.734375 C 71.558594 156.226563 71.320313 156.613281 71.011719 156.894531 C 70.703125 157.175781 70.289063 157.394531 69.777344 157.554688 C 69.261719 157.710938 68.613281 157.789063 67.828125 157.789063 C 66.34375 157.789063 65.285156 157.546875 64.667969 157.058594 C 64.042969 156.566406 63.734375 155.949219 63.734375 155.195313 C 63.734375 155.121094 63.734375 155.035156 63.742188 154.929688 "/>
</g>
<path style=" stroke:none;fill-rule:nonzero;fill:rgb(14.898682%,54.098511%,79.598999%);fill-opacity:1;" d="M 79.113281 150.328125 C 78.816406 150.425781 78.34375 150.539063 77.703125 150.671875 C 77.058594 150.804688 76.636719 150.933594 76.4375 151.058594 C 76.136719 151.265625 75.984375 151.527344 75.984375 151.84375 C 75.984375 152.15625 76.105469 152.425781 76.347656 152.652344 C 76.589844 152.878906 76.898438 152.992188 77.273438 152.992188 C 77.691406 152.992188 78.089844 152.863281 78.46875 152.597656 C 78.75 152.398438 78.933594 152.152344 79.023438 151.859375 C 79.082031 151.671875 79.113281 151.308594 79.113281 150.773438 Z M 76.007813 148.523438 L 73.90625 148.15625 C 74.140625 147.34375 74.546875 146.742188 75.128906 146.351563 C 75.707031 145.957031 76.5625 145.761719 77.703125 145.761719 C 78.734375 145.761719 79.507813 145.882813 80.011719 146.117188 C 80.519531 146.351563 80.871094 146.648438 81.082031 147.011719 C 81.285156 147.375 81.390625 148.039063 81.390625 149.007813 L 81.363281 151.605469 C 81.363281 152.347656 81.402344 152.890625 81.476563 153.242188 C 81.550781 153.59375 81.691406 153.972656 81.894531 154.371094 L 79.597656 154.371094 C 79.539063 154.226563 79.464844 154.003906 79.375 153.714844 C 79.339844 153.582031 79.308594 153.496094 79.292969 153.453125 C 78.898438 153.824219 78.472656 154.101563 78.023438 154.285156 C 77.570313 154.472656 77.09375 154.5625 76.582031 154.5625 C 75.679688 154.5625 74.964844 154.328125 74.449219 153.859375 C 73.925781 153.386719 73.667969 152.792969 73.667969 152.074219 C 73.667969 151.597656 73.785156 151.175781 74.023438 150.800781 C 74.261719 150.429688 74.589844 150.144531 75.015625 149.945313 C 75.441406 149.746094 76.054688 149.574219 76.859375 149.425781 C 77.945313 149.230469 78.695313 149.050781 79.113281 148.878906 L 79.113281 148.65625 C 79.113281 148.230469 79.003906 147.925781 78.78125 147.742188 C 78.5625 147.558594 78.148438 147.46875 77.539063 147.46875 C 77.125 147.46875 76.800781 147.546875 76.570313 147.703125 C 76.339844 147.859375 76.15625 148.132813 76.007813 148.523438 "/>
<path style=" stroke:none;fill-rule:nonzero;fill:rgb(14.898682%,54.098511%,79.598999%);fill-opacity:1;" d="M 82.742188 154.371094 L 82.742188 152.636719 L 86.027344 149.011719 C 86.566406 148.421875 86.964844 148 87.222656 147.753906 C 86.953125 147.769531 86.597656 147.78125 86.15625 147.785156 L 83.0625 147.800781 L 83.0625 145.953125 L 90.304688 145.953125 L 90.304688 147.53125 L 86.960938 151.242188 L 85.777344 152.472656 C 86.421875 152.433594 86.820313 152.414063 86.972656 152.414063 L 90.5625 152.414063 L 90.5625 154.371094 L 82.742188 154.371094 "/>
<path style=" stroke:none;fill-rule:nonzero;fill:rgb(14.898682%,54.098511%,79.598999%);fill-opacity:1;" d="M 27.808594 6.664063 L 28.925781 4.71875 L 26.179688 3.128906 L 26.058594 3.359375 C 25.785156 3.882813 25.488281 4.425781 25.171875 4.992188 L 25.058594 5.199219 L 27.351563 6.664063 L 27.808594 6.664063 "/>
<path style=" stroke:none;fill-rule:nonzero;fill:rgb(14.898682%,54.098511%,79.598999%);fill-opacity:1;" d="M 28.25 8.773438 L 27.9375 8.554688 L 27.355469 11.507813 L 27.476563 11.601563 C 29.652344 13.277344 29.976563 14.007813 29.976563 14.292969 C 29.976563 15.230469 29.28125 16.382813 27.902344 17.710938 C 26.519531 19.042969 25.34375 19.71875 24.402344 19.71875 C 24.027344 19.71875 23.476563 19.5625 22.765625 19.257813 C 22.332031 19.074219 22.027344 18.945313 21.851563 18.867188 L 21.878906 18.761719 L 20.972656 18.761719 L 20.972656 19.5 L 21.019531 19.566406 C 21.316406 19.976563 22.097656 20.402344 23.410156 20.871094 C 24.648438 21.304688 25.539063 21.515625 26.144531 21.515625 C 27.46875 21.515625 28.707031 20.636719 29.824219 18.90625 C 30.800781 17.367188 31.296875 15.886719 31.296875 14.496094 C 31.296875 12.109375 30.273438 10.183594 28.25 8.773438 "/>
<path style=" stroke:none;fill-rule:nonzero;fill:rgb(14.898682%,54.098511%,79.598999%);fill-opacity:1;" d="M 44.761719 7.175781 L 44.984375 7.308594 L 46.222656 5.082031 L 43.363281 3.578125 L 42.289063 5.726563 L 42.492188 5.84375 C 43.515625 6.4375 44.273438 6.878906 44.761719 7.175781 "/>
<path style=" stroke:none;fill-rule:nonzero;fill:rgb(14.898682%,54.098511%,79.598999%);fill-opacity:1;" d="M 63.492188 17.023438 C 63.527344 16.71875 63.636719 16.167969 63.816406 15.386719 C 63.96875 14.667969 64.042969 14.097656 64.042969 13.644531 C 64.042969 12.96875 63.890625 12.175781 63.59375 11.285156 C 63.296875 10.390625 62.941406 9.6875 62.53125 9.195313 L 62.289063 8.902344 L 60.996094 11.414063 L 61.066406 11.53125 C 61.933594 13.019531 62.378906 14.121094 62.382813 14.761719 L 56.828125 14.761719 C 56.363281 9.046875 56.050781 4.890625 55.871094 2.058594 L 55.832031 1.425781 L 53.617188 4.117188 L 55.03125 14.761719 L 51.890625 14.761719 L 51.890625 14.710938 L 47.726563 14.710938 L 47.476563 14.761719 L 47.476563 14.765625 C 47.109375 14.769531 46.960938 14.773438 46.886719 14.78125 C 46.675781 14.75 46.519531 14.699219 46.449219 14.640625 C 46.476563 14.625 46.507813 14.613281 46.539063 14.609375 L 46.632813 14.59375 L 46.691406 14.519531 C 47.121094 13.996094 47.480469 13.253906 47.761719 12.3125 L 47.78125 12.246094 L 47.765625 12.179688 C 47.621094 11.636719 47.15625 11.101563 46.339844 10.539063 C 45.53125 9.988281 44.855469 9.71875 44.277344 9.71875 C 43.679688 9.71875 43.277344 9.855469 43.042969 10.132813 C 42.847656 10.363281 42.546875 10.839844 42.128906 11.589844 C 41.496094 12.707031 41.410156 13.007813 41.410156 13.164063 C 41.410156 13.386719 41.496094 13.894531 42.277344 13.894531 C 43.003906 13.894531 43.144531 13.921875 43.160156 13.929688 C 43.214844 13.949219 43.339844 14.03125 43.515625 14.371094 C 42.90625 14.609375 42.125 14.75 41.191406 14.792969 L 41.191406 14.789063 L 41.144531 14.792969 C 40.828125 14.761719 40.214844 14.761719 39.03125 14.761719 C 38.078125 14.761719 36.921875 14.625 36.796875 13.96875 C 36.460938 12.339844 36.203125 10.097656 36.03125 7.304688 C 35.816406 3.914063 35.640625 1.644531 35.5 0.554688 L 35.429688 -0.00390625 L 35.0625 0.425781 C 33.683594 2.035156 33.566406 2.375 33.566406 2.570313 C 33.566406 4.449219 33.710938 6.882813 33.996094 9.804688 C 34.222656 12.210938 34.457031 14.613281 34.695313 17.019531 L 34.71875 17.242188 L 41.132813 17.242188 C 42.480469 17.242188 43.679688 16.886719 44.703125 16.175781 C 44.886719 16.394531 45.140625 16.609375 45.453125 16.816406 C 45.886719 17.105469 46.261719 17.242188 46.601563 17.242188 L 54.671875 17.242188 L 54.734375 17.203125 C 54.921875 17.082031 55.09375 16.921875 55.246094 16.730469 L 55.292969 17.242188 L 63.46875 17.242188 L 63.492188 17.023438 "/>
<path style=" stroke:none;fill-rule:nonzero;fill:rgb(14.898682%,54.098511%,79.598999%);fill-opacity:1;" d="M 61.53125 5.921875 C 61.996094 5.085938 62.332031 4.460938 62.53125 4.066406 L 62.640625 3.84375 L 59.851563 2.429688 L 59.730469 2.628906 C 59.296875 3.359375 58.984375 3.917969 58.800781 4.285156 L 58.699219 4.492188 L 61.40625 6.148438 L 61.53125 5.921875 "/>
<path style=" stroke:none;fill-rule:nonzero;fill:rgb(14.898682%,54.098511%,79.598999%);fill-opacity:1;" d="M 69.261719 12.355469 C 69.636719 12.355469 69.964844 12.59375 70.261719 13.089844 C 70.53125 13.535156 70.667969 13.984375 70.667969 14.421875 C 70.464844 14.5 69.703125 14.515625 68.804688 14.257813 C 68.140625 14.058594 67.90625 13.84375 67.90625 13.710938 C 67.90625 13.695313 67.917969 13.515625 68.382813 12.96875 C 68.847656 12.421875 69.007813 12.371094 69.011719 12.371094 C 69.070313 12.359375 69.152344 12.355469 69.261719 12.355469 Z M 88.171875 10.953125 C 87.378906 11.753906 86.8125 12.429688 86.492188 12.96875 L 86.441406 13.0625 L 86.46875 13.167969 C 86.820313 14.355469 86.871094 14.703125 86.871094 14.765625 L 85.632813 14.832031 C 85.492188 14.839844 85.292969 14.835938 85.042969 14.8125 C 84.90625 14.800781 84.789063 14.789063 84.691406 14.78125 L 85.535156 10.796875 L 84.972656 11.285156 C 83.707031 12.378906 83.445313 12.6875 83.355469 12.820313 C 83.078125 13.242188 82.929688 13.882813 82.90625 14.773438 C 82.386719 14.800781 81.78125 14.8125 81.105469 14.8125 C 78.835938 14.8125 77.992188 14.710938 77.695313 14.652344 C 77.929688 14.265625 78.097656 13.734375 78.207031 13.035156 C 78.253906 12.746094 78.320313 12.097656 78.398438 11.117188 L 78.449219 10.46875 L 77.976563 10.917969 C 77.3125 11.546875 76.6875 12.175781 76.117188 12.789063 L 76.050781 12.863281 L 76.050781 12.960938 C 76.050781 14.023438 75.90625 14.460938 75.78125 14.636719 C 75.621094 14.867188 75.308594 14.984375 74.847656 14.984375 C 74.726563 14.984375 74.40625 14.964844 73.5625 14.886719 L 73.5625 14.761719 L 73.3125 14.761719 C 72.75 14.761719 72.386719 14.660156 72.363281 14.5 C 71.917969 11.097656 71.039063 9.445313 69.671875 9.445313 C 68.851563 9.445313 68.113281 10.140625 67.414063 11.566406 C 66.816406 12.769531 66.515625 13.800781 66.515625 14.636719 C 66.515625 15.871094 67.0625 16.664063 68.15625 16.996094 C 68.304688 17.035156 68.738281 17.097656 70.730469 17.222656 C 70.332031 18.132813 69.585938 19.054688 68.515625 19.964844 C 67.257813 21.046875 66.117188 21.597656 65.125 21.597656 C 64.800781 21.597656 64.304688 21.484375 63.648438 21.269531 C 62.933594 21.03125 62.410156 20.914063 62.046875 20.914063 C 61.828125 20.914063 61.65625 21.117188 61.535156 21.296875 L 61.421875 21.460938 L 61.558594 21.605469 C 61.753906 21.820313 62.246094 22.171875 64.25 22.769531 C 65.632813 23.179688 66.554688 23.378906 67.074219 23.378906 C 68.398438 23.378906 69.59375 22.59375 70.628906 21.046875 C 71.382813 19.925781 71.9375 18.648438 72.28125 17.242188 L 75.175781 17.242188 C 75.332031 17.242188 75.550781 17.171875 76.058594 16.695313 L 76.445313 17.242188 L 82.4375 17.242188 C 82.519531 17.242188 82.605469 17.226563 83.007813 16.988281 C 83.15625 16.902344 83.265625 16.835938 83.335938 16.792969 C 84.214844 17.183594 85.046875 17.378906 85.820313 17.378906 C 86.042969 17.378906 86.34375 17.363281 86.71875 17.328125 C 87.136719 17.28125 87.421875 17.253906 87.582031 17.242188 L 87.710938 17.234375 L 87.78125 17.121094 C 88.324219 16.207031 88.601563 15.347656 88.601563 14.566406 L 88.601563 10.527344 L 88.171875 10.953125 "/>
</g>
</svg>
